HIERARCHY
ROOT base
{
	OFFSET 0.000000 0.000000 0.000000
	CHANNELS 6 Xposition Yposition Zposition Xrotation Yrotation Zrotation
	JOINT torso
	{
		OFFSET 0.000000 0.000000 0.490888
		CHANNELS 3 Xrotation Yrotation Zrotation
		JOINT head
		{
			OFFSET 0.000000 0.000000 0.382645
			CHANNELS 3 Xrotation Yrotation Zrotation
			End Site
			{
				OFFSET 0.000000 0.000000 0.175109
			}
		}
		JOINT arm.upper.left
		{
			OFFSET 0.175109 0.000000 0.324275
			CHANNELS 6 Xposition Yposition Zposition Xrotation Yrotation Zrotation
			JOINT arm.lower.left
			{
				OFFSET 0.000000 0.000000 -0.223750
				CHANNELS 3 Xrotation Yrotation Zrotation
				End Site
				{
					OFFSET 0.012971 0.000000 -0.197808
				}
			}
		}
		JOINT arm.upper.right
		{
			OFFSET -0.175109 0.000000 0.324275
			CHANNELS 6 Xposition Yposition Zposition Xrotation Yrotation Zrotation
			JOINT arm.lower.right
			{
				OFFSET 0.000000 0.000000 -0.223750
				CHANNELS 3 Xrotation Yrotation Zrotation
				End Site
				{
					OFFSET -0.012971 0.000000 -0.197808
				}
			}
		}
	}
	JOINT leg.upper.left
	{
		OFFSET 0.077826 0.000000 0.494131
		CHANNELS 6 Xposition Yposition Zposition Xrotation Yrotation Zrotation
		JOINT leg.lower.left
		{
			OFFSET -0.002826 0.000000 -0.223750
			CHANNELS 3 Xrotation Yrotation Zrotation
			End Site
			{
				OFFSET 0.002826 0.000000 -0.269148
			}
		}
	}
	JOINT leg.upper.right
	{
		OFFSET -0.077826 0.000000 0.494131
		CHANNELS 6 Xposition Yposition Zposition Xrotation Yrotation Zrotation
		JOINT leg.lower.right
		{
			OFFSET 0.002826 0.000000 -0.223750
			CHANNELS 3 Xrotation Yrotation Zrotation
			End Site
			{
				OFFSET -0.002826 0.000000 -0.269148
			}
		}
	}
}
MOTION
Frames: 20
Frame Time: 0.041667
0.000000 0.000000 0.000000 -0.000000 0.000000 -0.000000 -0.000000 0.000000 -0.000000 -0.000000 0.000000 -0.000000 0.175109 0.000000 0.324275 -0.000000 -0.000000 0.000000 0.000000 -0.000002 0.000000 -0.175109 0.000000 0.324275 -10.743810 -8.799770 3.693228 -80.986352 15.203036 16.975243 0.077826 0.000000 0.494131 -29.510468 0.108094 0.160939 13.137178 -0.231025 -0.086173 -0.077826 0.000000 0.494131 17.120767 0.694870 0.011448 0.346950 -1.273861 -0.075175 
0.000000 0.000000 0.000000 -0.000000 0.000000 -0.000000 -0.000000 0.000000 -0.000000 -0.000000 0.000000 -0.000000 0.175109 0.000000 0.324275 -0.000000 -0.000000 0.000000 0.000000 -0.000002 0.000000 -0.175109 0.000000 0.324275 -10.739735 -8.788173 3.674980 -80.714456 15.201769 16.893541 0.077826 0.000000 0.494131 -27.914483 0.084436 0.144516 12.690330 -0.178028 -0.086221 -0.077826 0.000000 0.494131 15.524673 0.666555 0.016623 4.656459 -1.222341 -0.017692 
0.000000 0.000000 0.000000 -0.000000 0.000000 -0.000000 -0.000000 0.000000 -0.000000 -0.000000 0.000000 -0.000000 0.175109 0.000000 0.324275 -0.000000 -0.000000 0.000000 0.000000 -0.000002 0.000000 -0.175109 0.000000 0.324275 -10.729138 -8.754640 3.627547 -80.003058 15.196220 16.679482 0.077826 0.000000 0.494131 -23.078314 0.009871 0.098871 11.347263 -0.018747 -0.083876 -0.077826 0.000000 0.494131 10.688362 0.579836 0.027530 16.030787 -1.049374 0.111739 
0.000000 0.000000 0.000000 -0.000000 0.000000 -0.000000 -0.000000 0.000000 -0.000000 -0.000000 0.000000 -0.000000 0.175109 0.000000 0.324275 -0.000000 -0.000000 0.000000 0.000000 -0.000002 0.000000 -0.175109 0.000000 0.324275 -10.718726 -8.712463 3.580913 -79.291297 15.186820 16.464526 0.077826 0.000000 0.494131 -16.467434 -0.097872 0.046976 9.534317 0.196085 -0.074791 -0.077826 0.000000 0.494131 4.077447 0.460305 0.030577 27.399659 -0.807661 0.193324 
0.000000 0.000000 0.000000 -0.000000 0.000000 -0.000000 -0.000000 0.000000 -0.000000 -0.000000 0.000000 -0.000000 0.175109 0.000000 0.324275 -0.000000 -0.000000 0.000000 0.000000 -0.000002 0.000000 -0.175109 0.000000 0.324275 -10.715158 -8.679025 3.564686 -79.018404 15.179983 16.380392 0.077826 0.000000 0.494131 -10.463043 -0.200334 0.010875 7.902790 0.389070 -0.060811 -0.077826 0.000000 0.494131 -1.926921 0.352076 0.021399 31.703095 -0.620776 0.185360 
0.000000 0.000000 0.000000 -0.000000 0.000000 -0.000000 -0.000000 0.000000 -0.000000 -0.000000 0.000000 -0.000000 0.175109 0.000000 0.324275 -0.000000 -0.000000 0.000000 0.000000 -0.000002 0.000000 -0.175109 0.000000 0.324275 -10.791648 -8.651317 3.562327 -79.023089 15.175297 16.378505 0.077826 0.000000 0.494131 -4.245329 -0.309849 -0.014991 6.218907 0.587730 -0.040627 -0.077826 0.000000 0.494131 -8.144568 0.241614 0.000026 30.445114 -0.442667 0.138945 
0.000000 0.000000 0.000000 -0.000000 0.000000 -0.000000 -0.000000 0.000000 -0.000000 -0.000000 0.000000 -0.000000 0.175109 0.000000 0.324275 -0.000000 -0.000000 0.000000 0.000000 -0.000002 0.000000 -0.175109 0.000000 0.324275 -11.005623 -8.622721 3.554677 -79.072349 15.162146 16.383454 0.077826 0.000000 0.494131 3.410889 -0.447607 -0.030295 4.139641 0.832065 -0.007665 -0.077826 0.000000 0.494131 -15.800685 0.109720 -0.042507 26.732336 -0.201524 0.092566 
0.000000 0.000000 0.000000 -0.000000 0.000000 -0.000000 -0.000000 0.000000 -0.000000 -0.000000 0.000000 -0.000000 0.175109 0.000000 0.324275 -0.000000 -0.000000 0.000000 0.000000 -0.000002 0.000000 -0.175109 0.000000 0.324275 -11.279317 -8.599173 3.553107 -79.226766 15.127583 16.403504 0.077826 0.000000 0.494131 10.698667 -0.579628 -0.027650 2.139183 1.065819 0.032391 -0.077826 0.000000 0.494131 -23.088409 -0.009615 -0.098975 21.505633 0.039669 0.070298 
0.000000 0.000000 0.000000 -0.000000 0.000000 -0.000000 -0.000000 0.000000 -0.000000 -0.000000 0.000000 -0.000000 0.175109 0.000000 0.324275 -0.000000 -0.000000 0.000000 0.000000 -0.000002 0.000000 -0.175109 0.000000 0.324275 -11.490963 -8.586431 3.569673 -79.523373 15.063156 16.443235 0.077826 0.000000 0.494131 15.543243 -0.666753 -0.016619 0.790326 1.222532 0.063987 -0.077826 0.000000 0.494131 -27.932972 -0.084570 -0.144702 16.541115 0.197104 0.074753 
0.000000 0.000000 0.000000 -0.000000 0.000000 -0.000000 -0.000000 0.000000 -0.000000 -0.000000 0.000000 -0.000000 0.175109 0.000000 0.324275 -0.000000 -0.000000 0.000000 0.000000 -0.000002 0.000000 -0.175109 0.000000 0.324275 -11.563514 -8.585788 3.608372 -79.948655 14.970947 16.499997 0.077826 0.000000 0.494131 17.120769 -0.694870 -0.011448 0.346950 1.273860 0.075174 -0.077826 0.000000 0.494131 -29.510471 -0.108094 -0.160939 13.137179 0.231025 0.086172 
0.000000 0.000000 0.000000 -0.000000 0.000000 -0.000000 -0.000000 0.000000 -0.000000 -0.000000 0.000000 -0.000000 0.175109 0.000000 0.324275 -0.000000 -0.000000 0.000000 0.000000 -0.000002 0.000000 -0.175109 0.000000 0.324275 -11.138332 -8.721414 3.698652 -80.986625 15.037717 16.855905 0.077826 0.000000 0.494131 15.834605 -0.671961 -0.015721 3.255231 1.233735 0.035332 -0.077826 0.000000 0.494131 -28.224322 -0.088953 -0.147652 11.012782 0.168578 0.091486 
0.000000 0.000000 0.000000 -0.000000 0.000000 -0.000000 -0.000000 0.000000 -0.000000 -0.000000 0.000000 -0.000000 0.175109 0.000000 0.324275 -0.000000 -0.000000 0.000000 0.000000 -0.000002 0.000000 -0.175109 0.000000 0.324275 -9.946169 -9.092166 3.865802 -83.016926 15.401436 17.750092 0.077826 0.000000 0.494131 11.858486 -0.600585 -0.025674 11.532347 1.099474 -0.065366 -0.077826 0.000000 0.494131 -24.248235 -0.027927 -0.109342 9.578192 0.033456 0.088297 
0.000000 0.000000 0.000000 -0.000000 0.000000 -0.000000 -0.000000 0.000000 -0.000000 -0.000000 0.000000 -0.000000 0.175109 0.000000 0.324275 -0.000000 -0.000000 0.000000 0.000000 -0.000002 0.000000 -0.175109 0.000000 0.324275 -8.413797 -9.561468 4.068788 -85.412861 15.878315 18.890522 0.077826 0.000000 0.494131 5.804673 -0.491038 -0.031267 22.236885 0.881294 -0.160130 -0.077826 0.000000 0.494131 -18.194463 0.069698 -0.059371 8.658119 -0.155693 0.077609 
0.000000 0.000000 0.000000 -0.000000 0.000000 -0.000000 -0.000000 0.000000 -0.000000 -0.000000 0.000000 -0.000000 0.175109 0.000000 0.324275 -0.000000 -0.000000 0.000000 0.000000 -0.000002 0.000000 -0.175109 0.000000 0.324275 -7.218520 -9.922681 4.228554 -87.218797 16.235300 19.785120 0.077826 0.000000 0.494131 -0.698263 -0.373492 -0.024352 30.525154 0.653862 -0.191400 -0.077826 0.000000 0.494131 -11.691602 0.179725 -0.017475 7.832484 -0.354736 0.063249 
0.000000 0.000000 0.000000 -0.000000 0.000000 -0.000000 -0.000000 0.000000 -0.000000 -0.000000 0.000000 -0.000000 0.175109 0.000000 0.324275 -0.000000 -0.000000 0.000000 0.000000 -0.000002 0.000000 -0.175109 0.000000 0.324275 -6.793802 -10.050022 4.285904 -87.849941 16.358498 20.104221 0.077826 0.000000 0.494131 -6.185792 -0.275484 -0.008177 33.438608 0.485780 -0.168300 -0.077826 0.000000 0.494131 -6.204128 0.275724 0.008001 6.743168 -0.525922 0.047541 
0.000000 0.000000 0.000000 -0.000000 0.000000 -0.000000 -0.000000 0.000000 -0.000000 -0.000000 0.000000 -0.000000 0.175109 0.000000 0.324275 -0.000000 -0.000000 0.000000 0.000000 -0.000002 0.000000 -0.175109 0.000000 0.324275 -7.443239 -9.874105 4.198613 -86.938036 16.208396 19.669275 0.077826 0.000000 0.494131 -11.674181 -0.179483 0.017305 31.637419 0.329888 -0.124173 -0.077826 0.000000 0.494131 -0.715775 0.373710 0.024189 5.256240 -0.700975 0.026474 
0.000000 0.000000 0.000000 -0.000000 0.000000 -0.000000 -0.000000 0.000000 -0.000000 -0.000000 0.000000 -0.000000 0.175109 0.000000 0.324275 -0.000000 -0.000000 0.000000 0.000000 -0.000002 0.000000 -0.175109 0.000000 0.324275 -9.270112 -9.373238 3.963801 -84.377582 15.749738 18.458851 0.077826 0.000000 0.494131 -18.179672 -0.069476 0.059224 26.551686 0.133565 -0.085335 -0.077826 0.000000 0.494131 5.789717 0.491215 0.031133 3.484790 -0.908704 -0.004542 
0.000000 0.000000 0.000000 -0.000000 0.000000 -0.000000 -0.000000 0.000000 -0.000000 -0.000000 0.000000 -0.000000 0.175109 0.000000 0.324275 -0.000000 -0.000000 0.000000 0.000000 -0.000002 0.000000 -0.175109 0.000000 0.324275 -11.609816 -8.719550 3.686587 -81.112424 15.085251 16.941106 0.077826 0.000000 0.494131 -24.238675 0.028083 0.109247 20.011691 -0.058977 -0.072448 -0.077826 0.000000 0.494131 11.848765 0.600698 0.025590 1.817417 -1.103242 -0.039587 
0.000000 0.000000 0.000000 -0.000000 0.000000 -0.000000 -0.000000 0.000000 -0.000000 -0.000000 0.000000 -0.000000 0.175109 0.000000 0.324275 -0.000000 -0.000000 0.000000 0.000000 -0.000002 0.000000 -0.175109 0.000000 0.324275 -13.426527 -8.203205 3.489884 -78.591428 14.511208 15.791636 0.077826 0.000000 0.494131 -28.221259 0.089005 0.147622 14.933269 -0.188771 -0.080261 -0.077826 0.000000 0.494131 15.831484 0.671997 0.015694 0.708461 -1.232005 -0.066021 
0.000000 0.000000 0.000000 -0.000000 0.000000 -0.000000 -0.000000 0.000000 -0.000000 -0.000000 0.000000 -0.000000 0.175109 0.000000 0.324275 -0.000000 -0.000000 0.000000 0.000000 -0.000002 0.000000 -0.175109 0.000000 0.324275 -14.070219 -8.018537 3.424131 -77.701762 14.295951 15.391059 0.077826 0.000000 0.494131 -29.510468 0.108094 0.160939 13.137178 -0.231025 -0.086173 -0.077826 0.000000 0.494131 17.120767 0.694870 0.011448 0.346950 -1.273861 -0.075175 
